<svg xmlns="http://www.w3.org/2000/svg"  viewBox="0 0 64 64" width="64px" height="64px"><ellipse cx="32" cy="61" opacity=".3" rx="20.125" ry="3"/><path fill="#fd3c4f" d="M48,52H17c-2.209,0-4-1.791-4-4V8c0-2.209,1.791-4,4-4h21.311c1.06,0,2.077,0.421,2.827,1.17	l9.689,9.68C51.578,15.601,52,16.619,52,17.68V48C52,50.209,50.209,52,48,52z"/><path fill="#fff" d="M13,8v18c2.762,0,5-2.238,5-5V9.652c0-0.42,0.264-0.795,0.66-0.934 C20.605,8.033,22,6.18,22,4h-5C14.791,4,13,5.791,13,8z" opacity=".3"/><path d="M52,48V37c-2.762,0-5,2.238-5,5v4c0,0.552-0.448,1-1,1h-9c-2.762,0-5,2.238-5,5h16 C50.209,52,52,50.209,52,48z" opacity=".15"/><line x1="16.5" x2="16.5" y1="9.5" y2="16.5" fill="none" stroke="#fff" stroke-linecap="round" stroke-linejoin="round" stroke-miterlimit="10" stroke-width="3"/><path fill="#a8172d" d="M50.827,14.851l-9.689-9.68C40.806,4.839,40.417,4.584,40,4.389V12c0,2.209,1.791,4,4,4h7.616	C51.42,15.579,51.162,15.185,50.827,14.851z"/><g><path fill="#a8172d" d="M23.942,37.979c-0.418,0.012-0.744-0.097-0.977-0.331c-0.233-0.232-0.35-0.534-0.35-0.902 c0-0.282,0.083-0.528,0.249-0.738c0.166-0.208,0.409-0.324,0.728-0.349l0.534-0.037c0.982-0.06,1.474-0.577,1.474-1.547v-7.939 c0-0.466,0.122-0.826,0.368-1.078c0.246-0.252,0.596-0.378,1.05-0.378c0.958,0,1.437,0.486,1.437,1.456v7.903 c0,2.444-1.289,3.745-3.868,3.905L23.942,37.979z"/><path fill="#a8172d" d="M35.695,38.034c-0.786,0-1.572-0.085-2.358-0.258c-0.786-0.171-1.468-0.423-2.045-0.756 c-0.343-0.184-0.558-0.432-0.645-0.745c-0.086-0.313-0.067-0.618,0.055-0.913c0.123-0.294,0.319-0.502,0.589-0.625 c0.271-0.123,0.596-0.093,0.977,0.091c0.491,0.283,1.037,0.492,1.639,0.627c0.602,0.135,1.198,0.202,1.787,0.202 c0.884,0,1.52-0.138,1.907-0.414c0.387-0.277,0.58-0.624,0.58-1.042c0-0.355-0.136-0.639-0.406-0.847 c-0.27-0.208-0.743-0.387-1.418-0.534l-2.082-0.442c-2.321-0.492-3.482-1.695-3.482-3.611c0-0.822,0.221-1.544,0.663-2.165 c0.441-0.619,1.059-1.102,1.851-1.445c0.792-0.343,1.71-0.516,2.755-0.516c0.687,0,1.363,0.082,2.026,0.249 c0.663,0.165,1.247,0.408,1.75,0.727c0.307,0.184,0.497,0.424,0.571,0.718c0.073,0.295,0.052,0.577-0.065,0.848 c-0.116,0.27-0.313,0.46-0.589,0.57c-0.277,0.111-0.617,0.069-1.022-0.129c-0.406-0.208-0.835-0.361-1.289-0.46 c-0.455-0.097-0.921-0.147-1.4-0.147c-0.774,0-1.372,0.15-1.796,0.451c-0.423,0.301-0.636,0.691-0.636,1.169 c0,0.357,0.129,0.645,0.387,0.866c0.258,0.22,0.706,0.399,1.345,0.534l2.082,0.442c2.383,0.516,3.574,1.683,3.574,3.5 c0,0.81-0.218,1.52-0.654,2.127c-0.435,0.609-1.049,1.081-1.842,1.418S36.776,38.034,35.695,38.034z"/></g></svg>