<svg xmlns="http://www.w3.org/2000/svg"  viewBox="0 0 48 48" width="48px" height="48px" baseProfile="basic"><path fill="#ffb74d" d="M31,44v-4.602l2.602,0.5c2.898,0.602,5.598-1.5,5.797-4.398L40,29l2.898-1.199 c1-0.402,1.402-1.602,0.801-2.602L40,19c-0.602-7.602-4.898-15-16-15C12.602,4,7,12.398,7,21c0,3.699,1.301,6.898,3.301,9.602 c1.801,2.5,2.699,5.5,2.699,8.5V44H31z"/><path fill="#388e3c" d="M24,8c-6.627,0-12,4.477-12,10c0,2.863,1.452,5.438,3.766,7.261c-0.452,1.879-2.412,2.776-3.05,2.95 c0,0,0.788,0.788,2.89,0.788c2.255,0,3.745-0.672,4.733-1.478C21.494,27.83,22.723,28,24,28c6.627,0,12-4.477,12-10 C36,12.477,30.627,8,24,8z"/><polygon fill="#fff" points="23.665,22.423 19.321,18.4 20.679,16.934 23.535,19.577 28.257,14.331 29.743,15.669"/></svg>