<svg xmlns="http://www.w3.org/2000/svg"  viewBox="0 0 48 48" width="48px" height="48px"><rect width="15" height="19" x="29" y="25" fill="#f57c00"/><rect width="22" height="2" x="22" y="24" fill="#ff9800"/><path fill="#546e7a" d="M40,24h-7v-2h7l-4.783-10.33l1.815-0.84l4.812,10.399c0.259,0.683,0.173,1.371-0.2,1.91	S40.656,24,40,24z"/><polygon fill="#78909c" points="32.702,20 30,18.645 37.298,4 40,5.355"/><path fill="#4fc3f7" d="M23,32H7v-4h13c1.657,0,3,1.343,3,3V32z"/><path fill="#81d4fa" d="M11.385,25l-1.37-12.331C9.846,11.149,8.562,10,7.034,10H4.719l1.667,15H11.385z"/><rect width="2" height="7" x="13" y="32" fill="#546e7a"/><circle cx="7" cy="43" r="1" fill="#546e7a"/><polygon fill="#607d8b" points="7,40 13,38 15,38 21,40 21,42 7,42"/><circle cx="14" cy="43" r="1" fill="#546e7a"/><circle cx="21" cy="43" r="1" fill="#546e7a"/><polygon fill="#546e7a" points="8,28 6,28 4,10 6,10"/><path fill="#78909c" d="M8,31v-3c0-1.657,1.343-2,3-2h7c0-1.105-0.895-2-2-2h-5c-2.761,0-5,1.239-5,4v3c0,1.105,0.895,2,2,2	h15v-2H8z"/><rect width="14" height="2" x="7" y="40" fill="#78909c"/></svg>