<svg xmlns="http://www.w3.org/2000/svg"  viewBox="0 0 64 64" width="64px" height="64px" baseProfile="basic"><ellipse cx="32" cy="61" opacity=".3" rx="20.125" ry="3"/><path fill="#37d0ee" d="M52,52H21c-2.209,0-4-1.791-4-4V8c0-2.209,1.791-4,4-4h21.311c1.06,0,2.077,0.421,2.827,1.17 l9.689,9.68C55.578,15.601,56,16.619,56,17.68V48C56,50.209,54.209,52,52,52z"/><path fill="#fff" d="M17,8v18c2.762,0,5-2.238,5-5V9.652c0-0.42,0.264-0.795,0.66-0.934 C24.605,8.033,26,6.18,26,4h-5C18.791,4,17,5.791,17,8z" opacity=".3"/><path d="M56,48V25c-2.762,0-5,2.238-5,5v16c0,0.552-0.448,1-1,1h-9c-2.762,0-5,2.238-5,5h16 C54.209,52,56,50.209,56,48z" opacity=".15"/><path fill="#fff" d="M20.5,18c-0.829,0-1.5-0.672-1.5-1.5v-7C19,8.672,19.671,8,20.5,8S22,8.672,22,9.5v7 C22,17.328,21.329,18,20.5,18z"/><path fill="#008aa9" d="M54.827,14.851l-9.689-9.68C44.806,4.839,44.417,4.584,44,4.389V12c0,2.209,1.791,4,4,4h7.616 C55.42,15.579,55.162,15.185,54.827,14.851z"/><g><path fill="#9c34c2" d="M30,51.361L30,53c0,1.105-0.895,2-2,2H10c-1.105,0-2-0.895-2-2v-2 c0-6.145,5.026-11.105,11.195-10.998C25.254,40.106,30,45.301,30,51.361z"/><circle cx="19" cy="42" r="3" fill="orange"/><ellipse cx="19" cy="34.5" fill="#ffce29" rx="7.003" ry="7.5"/><circle cx="12.499" cy="34.501" r="1.501" fill="#ffce29"/><circle cx="25.501" cy="34.501" r="1.501" fill="#ffce29"/><path fill="#9c34c2" d="M14.344,29.996c0,0,2.485,0.667,4.658,0.667s4.658-0.667,4.658-0.667v0.338 c0,1.378,0.909,2.503,2.193,2.502h0.015c0.001-2.2-0.599-4.573-2.352-6.118c-2.6-2.29-6.428-2.29-9.028,0 c-1.754,1.545-2.359,4.447-2.359,6.115c0.008,0,0.015,0,0.023,0c1.283,0,2.191-1.117,2.191-2.495L14.344,29.996L14.344,29.996z"/></g></svg>